<?xml version="1.0" encoding="utf-8"?>
<!-- Generator: Adobe Illustrator 22.1.0, SVG Export Plug-In . SVG Version: 6.00 Build 0)  -->
<svg version="1.1" id="Layer_1" xmlns="http://www.w3.org/2000/svg" xmlns:xlink="http://www.w3.org/1999/xlink" x="0px" y="0px"
	 viewBox="0 0 392 50" style="enable-background:new 0 0 392 50;" xml:space="preserve">
<style type="text/css">
	.st0{opacity:0.8;stroke:#000000;stroke-width:0.25;}
	.st1{opacity:0.8;}
</style>
<g>
	<line class="st0" x1="132.9" y1="0" x2="132.9" y2="49.9"/>
	<g>
		<path d="M26.6,46.7c0,0.4,0,0.8-0.1,1.2c-0.1,0.3-0.1,0.6-0.3,0.8c-0.1,0.2-0.3,0.4-0.4,0.5c-0.2,0.1-0.3,0.1-0.5,0.1H2.4
			c-0.6,0-1.1-0.2-1.6-0.6c-0.5-0.4-0.8-1.1-0.8-2V4.2c0-1,0.3-1.6,0.8-2c0.5-0.4,1-0.6,1.6-0.6H25c0.2,0,0.4,0.1,0.5,0.1
			c0.2,0.1,0.3,0.3,0.4,0.5C26,2.4,26.1,2.7,26.2,3s0.1,0.7,0.1,1.2c0,0.4,0,0.8-0.1,1.2C26.1,5.8,26,6,25.9,6.3
			c-0.1,0.2-0.2,0.4-0.4,0.5c-0.2,0.1-0.3,0.1-0.5,0.1H6.3v15h16c0.2,0,0.4,0.1,0.5,0.2c0.2,0.1,0.3,0.3,0.4,0.5
			c0.1,0.2,0.2,0.5,0.2,0.8c0,0.3,0.1,0.7,0.1,1.2c0,0.4,0,0.8-0.1,1.1s-0.1,0.6-0.2,0.8c-0.1,0.2-0.2,0.3-0.4,0.4
			c-0.2,0.1-0.3,0.1-0.5,0.1h-16v17.1h18.9c0.2,0,0.4,0,0.5,0.1c0.2,0.1,0.3,0.3,0.4,0.5c0.1,0.2,0.2,0.5,0.3,0.8
			C26.5,45.8,26.6,46.2,26.6,46.7z"/>
		<path d="M71.4,4.3c0,0.5,0,0.9-0.1,1.2c0,0.3-0.1,0.6-0.2,0.8c-0.1,0.2-0.2,0.4-0.4,0.5C70.5,6.9,70.3,7,70.1,7H56.7v41.4
			c0,0.2,0,0.4-0.1,0.5c-0.1,0.1-0.3,0.3-0.5,0.3c-0.2,0.1-0.6,0.2-1,0.2c-0.4,0.1-0.9,0.1-1.5,0.1c-0.6,0-1.1,0-1.5-0.1
			c-0.4-0.1-0.8-0.1-1-0.2c-0.2-0.1-0.4-0.2-0.5-0.3c-0.1-0.1-0.1-0.3-0.1-0.5V7H36.9c-0.2,0-0.4-0.1-0.5-0.1
			c-0.2-0.1-0.3-0.3-0.4-0.5c-0.1-0.2-0.2-0.5-0.2-0.8c-0.1-0.3-0.1-0.7-0.1-1.2c0-0.5,0-0.9,0.1-1.2c0.1-0.4,0.1-0.6,0.2-0.9
			c0.1-0.2,0.2-0.4,0.4-0.5c0.2-0.1,0.3-0.1,0.5-0.1h33.2c0.2,0,0.4,0.1,0.5,0.1C70.8,1.8,71,2,71.1,2.2c0.1,0.2,0.2,0.5,0.2,0.9
			C71.4,3.4,71.4,3.8,71.4,4.3z"/>
		<path d="M112.7,47.1c0.2,0.5,0.3,1,0.3,1.3c0,0.3-0.1,0.6-0.3,0.8c-0.2,0.2-0.5,0.3-1,0.3c-0.5,0-1.1,0.1-1.8,0.1
			c-0.8,0-1.4,0-1.8-0.1c-0.5,0-0.8-0.1-1-0.2c-0.2-0.1-0.4-0.2-0.5-0.3c-0.1-0.1-0.2-0.3-0.3-0.6l-4.1-11.6H82.3l-3.9,11.5
			c-0.1,0.2-0.2,0.4-0.3,0.6c-0.1,0.2-0.3,0.3-0.5,0.4c-0.2,0.1-0.6,0.2-1,0.2c-0.4,0-1,0.1-1.7,0.1c-0.7,0-1.3,0-1.8-0.1
			c-0.5-0.1-0.8-0.2-1-0.4c-0.2-0.2-0.3-0.4-0.3-0.8c0-0.3,0.1-0.8,0.3-1.3l16-44.4c0.1-0.3,0.2-0.5,0.4-0.7
			c0.2-0.2,0.4-0.3,0.7-0.4c0.3-0.1,0.7-0.2,1.2-0.2c0.5,0,1.1-0.1,1.8-0.1c0.8,0,1.4,0,2,0.1c0.5,0,0.9,0.1,1.3,0.2
			c0.3,0.1,0.6,0.2,0.7,0.4c0.2,0.2,0.3,0.4,0.4,0.7L112.7,47.1z M92.1,7.9L92.1,7.9l-8.3,23.8h16.6L92.1,7.9z"/>
	</g>
	<g class="st1">
		<path d="M164.4,17.4c0,0.1,0,0.3,0,0.4c0,0.1,0,0.2-0.1,0.3c0,0.1-0.1,0.1-0.1,0.2c-0.1,0-0.1,0-0.2,0h-7.6
			c-0.2,0-0.4-0.1-0.5-0.2c-0.2-0.1-0.3-0.3-0.3-0.7V3.3c0-0.3,0.1-0.5,0.3-0.7c0.2-0.1,0.3-0.2,0.5-0.2h7.5c0.1,0,0.1,0,0.2,0
			c0.1,0,0.1,0.1,0.1,0.2c0,0.1,0.1,0.2,0.1,0.3c0,0.1,0,0.2,0,0.4c0,0.1,0,0.3,0,0.4c0,0.1,0,0.2-0.1,0.3c0,0.1-0.1,0.1-0.1,0.2
			c-0.1,0-0.1,0-0.2,0h-6.2v5h5.3c0.1,0,0.1,0,0.2,0.1c0.1,0,0.1,0.1,0.1,0.2c0,0.1,0.1,0.2,0.1,0.3c0,0.1,0,0.2,0,0.4
			c0,0.1,0,0.3,0,0.4c0,0.1,0,0.2-0.1,0.3c0,0.1-0.1,0.1-0.1,0.1c-0.1,0-0.1,0-0.2,0h-5.3v5.7h6.3c0.1,0,0.1,0,0.2,0
			c0.1,0,0.1,0.1,0.1,0.2c0,0.1,0.1,0.2,0.1,0.3C164.3,17.1,164.4,17.3,164.4,17.4z"/>
		<path d="M184,18c0,0.1,0,0.1,0,0.2c0,0-0.1,0.1-0.2,0.1c-0.1,0-0.2,0.1-0.3,0.1c-0.1,0-0.3,0-0.5,0c-0.2,0-0.4,0-0.5,0
			c-0.1,0-0.2,0-0.3-0.1c-0.1,0-0.1-0.1-0.2-0.1c0,0,0-0.1,0-0.2v-6.7c0-0.5,0-0.9-0.1-1.3c-0.1-0.4-0.2-0.7-0.4-1
			c-0.2-0.3-0.4-0.5-0.7-0.6c-0.3-0.1-0.6-0.2-1-0.2c-0.5,0-0.9,0.2-1.4,0.5c-0.5,0.4-1,0.9-1.6,1.6V18c0,0.1,0,0.1,0,0.2
			c0,0-0.1,0.1-0.2,0.1c-0.1,0-0.2,0.1-0.3,0.1c-0.1,0-0.3,0-0.5,0c-0.2,0-0.3,0-0.5,0c-0.1,0-0.2,0-0.3-0.1c-0.1,0-0.1-0.1-0.2-0.1
			c0,0,0-0.1,0-0.2v-6.7c0-0.5,0-0.9-0.1-1.3c-0.1-0.4-0.2-0.7-0.4-1c-0.2-0.3-0.4-0.5-0.7-0.6c-0.3-0.1-0.6-0.2-1-0.2
			c-0.5,0-0.9,0.2-1.4,0.5c-0.5,0.4-1,0.9-1.5,1.6V18c0,0.1,0,0.1,0,0.2c0,0-0.1,0.1-0.2,0.1c-0.1,0-0.2,0.1-0.3,0.1
			c-0.1,0-0.3,0-0.5,0c-0.2,0-0.4,0-0.5,0c-0.1,0-0.2,0-0.3-0.1c-0.1,0-0.1-0.1-0.2-0.1c0,0,0-0.1,0-0.2V7c0-0.1,0-0.1,0-0.2
			c0,0,0.1-0.1,0.1-0.1c0.1,0,0.2-0.1,0.3-0.1c0.1,0,0.3,0,0.5,0c0.2,0,0.3,0,0.4,0c0.1,0,0.2,0,0.3,0.1c0.1,0,0.1,0.1,0.1,0.1
			c0,0,0,0.1,0,0.2v1.5c0.6-0.7,1.2-1.2,1.8-1.5c0.6-0.3,1.2-0.5,1.8-0.5c0.5,0,0.9,0.1,1.2,0.2c0.4,0.1,0.7,0.3,1,0.4
			c0.3,0.2,0.5,0.4,0.7,0.7c0.2,0.3,0.4,0.6,0.5,0.9c0.4-0.4,0.7-0.7,1.1-1c0.3-0.3,0.7-0.5,1-0.7c0.3-0.2,0.6-0.3,0.9-0.4
			c0.3-0.1,0.6-0.1,0.9-0.1c0.7,0,1.3,0.1,1.8,0.4c0.5,0.2,0.9,0.6,1.2,1c0.3,0.4,0.5,0.9,0.6,1.5c0.1,0.6,0.2,1.2,0.2,1.8V18z"/>
		<path d="M197.8,12.3c0,1-0.1,1.8-0.3,2.6c-0.2,0.8-0.5,1.4-0.9,2c-0.4,0.5-0.9,0.9-1.5,1.2c-0.6,0.3-1.3,0.4-2.1,0.4
			c-0.3,0-0.6,0-0.9-0.1c-0.3-0.1-0.6-0.2-0.8-0.3c-0.3-0.1-0.5-0.3-0.8-0.5c-0.3-0.2-0.5-0.5-0.8-0.7v5.5c0,0.1,0,0.1,0,0.2
			c0,0-0.1,0.1-0.2,0.1c-0.1,0-0.2,0.1-0.3,0.1c-0.1,0-0.3,0-0.5,0c-0.2,0-0.4,0-0.5,0c-0.1,0-0.2,0-0.3-0.1c-0.1,0-0.1-0.1-0.2-0.1
			c0-0.1,0-0.1,0-0.2V7c0-0.1,0-0.1,0-0.2c0,0,0.1-0.1,0.1-0.1c0.1,0,0.2-0.1,0.3-0.1c0.1,0,0.3,0,0.4,0c0.2,0,0.3,0,0.4,0
			c0.1,0,0.2,0,0.3,0.1c0.1,0,0.1,0.1,0.2,0.1c0,0,0,0.1,0,0.2v1.5c0.3-0.3,0.7-0.6,1-0.9c0.3-0.3,0.6-0.5,0.9-0.6
			c0.3-0.2,0.6-0.3,1-0.4c0.3-0.1,0.7-0.1,1.1-0.1c0.8,0,1.5,0.2,2.1,0.5c0.6,0.3,1,0.7,1.4,1.3c0.4,0.5,0.6,1.2,0.8,1.9
			C197.8,10.7,197.8,11.5,197.8,12.3z M195.7,12.5c0-0.6,0-1.1-0.1-1.6c-0.1-0.5-0.2-1-0.4-1.4c-0.2-0.4-0.5-0.7-0.8-1
			c-0.4-0.2-0.8-0.4-1.3-0.4c-0.3,0-0.5,0-0.8,0.1c-0.3,0.1-0.5,0.2-0.8,0.4c-0.3,0.2-0.5,0.4-0.8,0.7c-0.3,0.3-0.6,0.6-0.9,1v4.4
			c0.6,0.7,1.1,1.2,1.6,1.6c0.5,0.4,1,0.5,1.6,0.5c0.5,0,0.9-0.1,1.3-0.4c0.4-0.2,0.7-0.6,0.9-1c0.2-0.4,0.4-0.9,0.5-1.4
			C195.7,13.6,195.7,13.1,195.7,12.5z"/>
		<path d="M202.9,18c0,0.1,0,0.1,0,0.2c0,0-0.1,0.1-0.2,0.1c-0.1,0-0.2,0.1-0.3,0.1c-0.1,0-0.3,0-0.5,0c-0.2,0-0.4,0-0.5,0
			c-0.1,0-0.2,0-0.3-0.1c-0.1,0-0.1-0.1-0.2-0.1c0,0,0-0.1,0-0.2V1.6c0-0.1,0-0.1,0-0.2c0,0,0.1-0.1,0.2-0.1c0.1,0,0.2-0.1,0.3-0.1
			c0.1,0,0.3,0,0.5,0c0.2,0,0.4,0,0.5,0c0.1,0,0.2,0,0.3,0.1c0.1,0,0.1,0.1,0.2,0.1c0,0,0,0.1,0,0.2V18z"/>
		<path d="M216.9,12.4c0,0.9-0.1,1.7-0.4,2.5c-0.2,0.8-0.6,1.4-1.1,2s-1.1,1-1.8,1.3c-0.7,0.3-1.5,0.5-2.5,0.5
			c-0.9,0-1.7-0.1-2.4-0.4c-0.7-0.3-1.2-0.7-1.7-1.2c-0.4-0.5-0.8-1.1-1-1.9c-0.2-0.7-0.3-1.6-0.3-2.5c0-0.9,0.1-1.7,0.4-2.5
			c0.2-0.8,0.6-1.4,1.1-2s1.1-1,1.8-1.3c0.7-0.3,1.5-0.5,2.5-0.5c0.9,0,1.7,0.1,2.4,0.4c0.7,0.3,1.2,0.7,1.7,1.2
			c0.4,0.5,0.8,1.1,1,1.9C216.8,10.6,216.9,11.4,216.9,12.4z M214.8,12.5c0-0.6-0.1-1.2-0.2-1.7c-0.1-0.5-0.3-1-0.6-1.4
			c-0.3-0.4-0.6-0.7-1-1c-0.4-0.2-1-0.3-1.6-0.3c-0.6,0-1.1,0.1-1.6,0.3c-0.4,0.2-0.8,0.5-1.1,0.9c-0.3,0.4-0.5,0.8-0.6,1.4
			c-0.1,0.5-0.2,1.1-0.2,1.7c0,0.6,0.1,1.2,0.2,1.7c0.1,0.5,0.3,1,0.6,1.4c0.3,0.4,0.6,0.7,1,0.9c0.4,0.2,1,0.3,1.6,0.3
			c0.6,0,1.1-0.1,1.6-0.3c0.4-0.2,0.8-0.5,1.1-0.9c0.3-0.4,0.5-0.8,0.6-1.4C214.8,13.7,214.8,13.1,214.8,12.5z"/>
		<path d="M224.8,18.3l-1.5,4.1c-0.1,0.1-0.2,0.2-0.4,0.3c-0.2,0.1-0.5,0.1-0.9,0.1c-0.2,0-0.4,0-0.5,0c-0.1,0-0.2-0.1-0.3-0.1
			c-0.1,0-0.1-0.1-0.1-0.2c0-0.1,0-0.2,0.1-0.3l1.5-3.8c-0.1,0-0.1-0.1-0.2-0.2c-0.1-0.1-0.1-0.2-0.1-0.2l-3.9-10.6
			c-0.1-0.2-0.1-0.3-0.1-0.4c0-0.1,0-0.2,0.1-0.2c0.1-0.1,0.2-0.1,0.3-0.1c0.1,0,0.3,0,0.6,0c0.2,0,0.4,0,0.6,0c0.1,0,0.3,0,0.3,0.1
			c0.1,0,0.1,0.1,0.2,0.1c0,0.1,0.1,0.1,0.1,0.3l3.2,8.9h0l3.1-8.9c0-0.2,0.1-0.3,0.2-0.3c0.1,0,0.2-0.1,0.3-0.1c0.1,0,0.3,0,0.6,0
			c0.2,0,0.4,0,0.6,0c0.1,0,0.3,0.1,0.3,0.1c0.1,0.1,0.1,0.1,0.1,0.2c0,0.1,0,0.2-0.1,0.4L224.8,18.3z"/>
		<path d="M247.6,18c0,0.1,0,0.1-0.1,0.2c0,0-0.1,0.1-0.2,0.1c-0.1,0-0.2,0.1-0.3,0.1c-0.1,0-0.3,0-0.5,0c-0.2,0-0.4,0-0.5,0
			c-0.1,0-0.2,0-0.3-0.1c-0.1,0-0.1-0.1-0.2-0.1c0,0-0.1-0.1-0.1-0.2v-6.7c0-0.5,0-0.9-0.1-1.3c-0.1-0.4-0.2-0.7-0.4-1
			c-0.2-0.3-0.4-0.5-0.7-0.6c-0.3-0.1-0.6-0.2-1-0.2c-0.5,0-0.9,0.2-1.4,0.5s-1,0.9-1.6,1.6V18c0,0.1,0,0.1,0,0.2
			c0,0-0.1,0.1-0.2,0.1c-0.1,0-0.2,0.1-0.3,0.1c-0.1,0-0.3,0-0.5,0c-0.2,0-0.4,0-0.5,0c-0.1,0-0.2,0-0.3-0.1c-0.1,0-0.1-0.1-0.2-0.1
			c0,0,0-0.1,0-0.2v-6.7c0-0.5,0-0.9-0.1-1.3c-0.1-0.4-0.2-0.7-0.4-1c-0.2-0.3-0.4-0.5-0.7-0.6c-0.3-0.1-0.6-0.2-1-0.2
			c-0.5,0-0.9,0.2-1.4,0.5c-0.5,0.4-1,0.9-1.5,1.6V18c0,0.1,0,0.1,0,0.2c0,0-0.1,0.1-0.2,0.1c-0.1,0-0.2,0.1-0.3,0.1
			c-0.1,0-0.3,0-0.5,0c-0.2,0-0.4,0-0.5,0c-0.1,0-0.2,0-0.3-0.1c-0.1,0-0.1-0.1-0.2-0.1c0,0,0-0.1,0-0.2V7c0-0.1,0-0.1,0-0.2
			c0,0,0.1-0.1,0.1-0.1c0.1,0,0.2-0.1,0.3-0.1c0.1,0,0.3,0,0.5,0c0.2,0,0.3,0,0.4,0c0.1,0,0.2,0,0.3,0.1c0.1,0,0.1,0.1,0.1,0.1
			c0,0,0,0.1,0,0.2v1.5c0.6-0.7,1.2-1.2,1.8-1.5c0.6-0.3,1.2-0.5,1.8-0.5c0.5,0,0.9,0.1,1.2,0.2c0.4,0.1,0.7,0.3,1,0.4
			c0.3,0.2,0.5,0.4,0.7,0.7c0.2,0.3,0.4,0.6,0.5,0.9c0.4-0.4,0.7-0.7,1.1-1c0.3-0.3,0.6-0.5,1-0.7c0.3-0.2,0.6-0.3,0.9-0.4
			c0.3-0.1,0.6-0.1,0.9-0.1c0.7,0,1.3,0.1,1.8,0.4c0.5,0.2,0.9,0.6,1.2,1c0.3,0.4,0.5,0.9,0.6,1.5c0.1,0.6,0.2,1.2,0.2,1.8V18z"/>
		<path d="M260.7,12c0,0.3-0.1,0.5-0.2,0.7c-0.2,0.1-0.3,0.2-0.6,0.2h-7.3c0,0.6,0.1,1.2,0.2,1.7s0.3,0.9,0.6,1.3
			c0.3,0.4,0.7,0.6,1.1,0.8c0.5,0.2,1,0.3,1.7,0.3c0.5,0,1,0,1.4-0.1c0.4-0.1,0.8-0.2,1.1-0.3c0.3-0.1,0.6-0.2,0.7-0.3
			c0.2-0.1,0.3-0.1,0.4-0.1c0.1,0,0.1,0,0.2,0c0,0,0.1,0.1,0.1,0.1s0,0.1,0.1,0.2c0,0.1,0,0.2,0,0.4c0,0.1,0,0.2,0,0.3
			c0,0.1,0,0.1,0,0.2c0,0.1,0,0.1-0.1,0.2c0,0-0.1,0.1-0.1,0.1c0,0-0.2,0.1-0.4,0.2c-0.2,0.1-0.5,0.2-0.9,0.3
			c-0.4,0.1-0.8,0.2-1.2,0.3s-1,0.1-1.5,0.1c-0.9,0-1.7-0.1-2.4-0.4c-0.7-0.3-1.3-0.6-1.7-1.1s-0.8-1.1-1.1-1.9
			c-0.2-0.8-0.4-1.6-0.4-2.6c0-0.9,0.1-1.8,0.4-2.6c0.2-0.8,0.6-1.4,1.1-1.9c0.5-0.5,1-0.9,1.7-1.2c0.7-0.3,1.4-0.4,2.2-0.4
			c0.9,0,1.6,0.1,2.2,0.4c0.6,0.3,1.1,0.7,1.5,1.1c0.4,0.5,0.7,1,0.9,1.7c0.2,0.6,0.3,1.3,0.3,2V12z M258.7,11.4
			c0-1.1-0.2-1.9-0.7-2.5c-0.5-0.6-1.2-0.9-2.2-0.9c-0.5,0-0.9,0.1-1.3,0.3c-0.4,0.2-0.7,0.4-1,0.7s-0.5,0.7-0.6,1.1
			c-0.1,0.4-0.2,0.8-0.2,1.3H258.7z"/>
		<path d="M273.3,18c0,0.1,0,0.1-0.1,0.2c0,0-0.1,0.1-0.2,0.1c-0.1,0-0.2,0.1-0.3,0.1c-0.1,0-0.3,0-0.5,0c-0.2,0-0.4,0-0.5,0
			c-0.1,0-0.2,0-0.3-0.1c-0.1,0-0.1-0.1-0.2-0.1c0,0-0.1-0.1-0.1-0.2v-6.5c0-0.6,0-1.1-0.1-1.5c-0.1-0.4-0.2-0.7-0.4-1
			c-0.2-0.3-0.4-0.5-0.7-0.6c-0.3-0.1-0.6-0.2-1-0.2c-0.5,0-1,0.2-1.5,0.5s-1,0.9-1.6,1.6V18c0,0.1,0,0.1,0,0.2c0,0-0.1,0.1-0.2,0.1
			c-0.1,0-0.2,0.1-0.3,0.1c-0.1,0-0.3,0-0.5,0c-0.2,0-0.4,0-0.5,0c-0.1,0-0.2,0-0.3-0.1c-0.1,0-0.1-0.1-0.2-0.1c0,0,0-0.1,0-0.2V7
			c0-0.1,0-0.1,0-0.2c0,0,0.1-0.1,0.1-0.1c0.1,0,0.2-0.1,0.3-0.1c0.1,0,0.3,0,0.5,0c0.2,0,0.3,0,0.4,0c0.1,0,0.2,0,0.3,0.1
			c0.1,0,0.1,0.1,0.1,0.1c0,0,0,0.1,0,0.2v1.5c0.6-0.7,1.2-1.2,1.9-1.5c0.6-0.3,1.2-0.5,1.9-0.5c0.7,0,1.4,0.1,1.9,0.4
			c0.5,0.2,0.9,0.6,1.2,1c0.3,0.4,0.5,0.9,0.7,1.5s0.2,1.2,0.2,2V18z"/>
		<path d="M282.5,17.2c0,0.2,0,0.4-0.1,0.6c0,0.1-0.1,0.2-0.1,0.3c-0.1,0.1-0.2,0.1-0.3,0.2s-0.3,0.1-0.4,0.1
			c-0.2,0-0.3,0.1-0.5,0.1c-0.2,0-0.4,0-0.6,0c-0.6,0-1.1-0.1-1.5-0.2c-0.4-0.2-0.7-0.4-1-0.7c-0.3-0.3-0.5-0.7-0.6-1.2
			c-0.1-0.5-0.2-1-0.2-1.7V8.3h-1.6c-0.1,0-0.2-0.1-0.3-0.2c-0.1-0.1-0.1-0.3-0.1-0.6c0-0.2,0-0.3,0-0.4c0-0.1,0-0.2,0.1-0.3
			c0-0.1,0.1-0.1,0.1-0.1c0.1,0,0.1,0,0.2,0h1.5V4c0-0.1,0-0.1,0-0.2c0,0,0.1-0.1,0.2-0.1c0.1,0,0.2-0.1,0.3-0.1c0.1,0,0.3,0,0.5,0
			c0.2,0,0.4,0,0.5,0c0.1,0,0.2,0,0.3,0.1c0.1,0,0.1,0.1,0.2,0.1c0,0.1,0,0.1,0,0.2v2.6h2.8c0.1,0,0.1,0,0.2,0c0,0,0.1,0.1,0.1,0.1
			c0,0.1,0.1,0.2,0.1,0.3c0,0.1,0,0.2,0,0.4c0,0.3,0,0.5-0.1,0.6c-0.1,0.1-0.2,0.2-0.3,0.2h-2.8v6.2c0,0.8,0.1,1.3,0.3,1.7
			c0.2,0.4,0.6,0.6,1.2,0.6c0.2,0,0.4,0,0.5-0.1c0.1,0,0.3-0.1,0.4-0.1c0.1,0,0.2-0.1,0.3-0.1c0.1,0,0.2-0.1,0.2-0.1
			c0,0,0.1,0,0.1,0c0,0,0.1,0.1,0.1,0.1c0,0.1,0,0.1,0.1,0.2C282.5,16.9,282.5,17,282.5,17.2z"/>
		<path d="M290.4,14.1c0-0.4,0.1-0.9,0.2-1.3c0.1-0.4,0.3-0.8,0.6-1.2c0.3-0.4,0.6-0.7,1-1.1s0.9-0.7,1.5-1.1
			c-0.3-0.4-0.6-0.8-0.8-1.2c-0.2-0.4-0.4-0.7-0.6-1c-0.2-0.3-0.3-0.6-0.3-0.9c-0.1-0.3-0.1-0.6-0.1-0.9c0-0.5,0.1-1,0.3-1.5
			c0.2-0.5,0.4-0.9,0.8-1.2c0.4-0.4,0.9-0.6,1.5-0.8c0.6-0.2,1.3-0.3,2.2-0.3c0.7,0,1.3,0.1,1.9,0.2c0.5,0.2,1,0.4,1.3,0.7
			s0.6,0.6,0.8,1c0.2,0.4,0.3,0.9,0.3,1.4c0,0.5-0.1,0.9-0.2,1.3c-0.2,0.4-0.4,0.8-0.7,1.2c-0.3,0.4-0.8,0.8-1.3,1.1
			c-0.5,0.4-1.2,0.8-1.9,1.2c0.3,0.3,0.6,0.7,0.9,1c0.3,0.4,0.7,0.7,1,1.1c0.4,0.4,0.7,0.7,1.1,1.1s0.7,0.7,1.1,1
			c0.2-0.2,0.3-0.5,0.4-0.8c0.1-0.3,0.2-0.6,0.3-0.9c0.1-0.3,0.2-0.6,0.2-1c0-0.3,0.1-0.7,0.1-1V10c0-0.1,0-0.1,0-0.2
			c0-0.1,0.1-0.1,0.1-0.1c0.1,0,0.2-0.1,0.3-0.1s0.3,0,0.5,0c0.2,0,0.3,0,0.5,0c0.1,0,0.2,0,0.3,0.1c0.1,0,0.1,0.1,0.2,0.1
			c0,0.1,0.1,0.1,0.1,0.3v0.3c0,0.5,0,0.9-0.1,1.4c-0.1,0.4-0.2,0.9-0.3,1.3c-0.1,0.4-0.3,0.8-0.5,1.2c-0.2,0.4-0.4,0.7-0.7,1.1
			c0.4,0.3,0.7,0.5,1,0.7c0.3,0.2,0.5,0.4,0.7,0.5c0.2,0.1,0.4,0.2,0.5,0.3c0.1,0.1,0.2,0.1,0.3,0.1s0.2,0,0.2,0c0.1,0,0.1,0,0.2,0
			c0,0,0.1,0.1,0.1,0.2c0,0.1,0,0.2,0,0.5c0,0.2,0,0.4,0,0.5c0,0.1,0,0.2,0,0.3c0,0.1-0.1,0.1-0.1,0.2c-0.1,0-0.1,0.1-0.3,0.1
			c-0.1,0-0.3,0.1-0.5,0.1c-0.2,0-0.3,0-0.5-0.1c-0.2-0.1-0.4-0.2-0.7-0.3c-0.3-0.1-0.6-0.3-0.9-0.6s-0.8-0.6-1.2-0.9
			c-0.3,0.3-0.7,0.5-1.1,0.8c-0.4,0.2-0.8,0.4-1.2,0.6c-0.4,0.2-0.9,0.3-1.4,0.4c-0.5,0.1-1,0.1-1.5,0.1c-0.5,0-1,0-1.5-0.1
			c-0.5-0.1-0.9-0.2-1.3-0.4c-0.4-0.2-0.7-0.4-1.1-0.6c-0.3-0.3-0.6-0.5-0.8-0.9c-0.2-0.3-0.4-0.7-0.5-1.1
			C290.4,15,290.4,14.6,290.4,14.1z M292.6,13.9c0,0.4,0.1,0.8,0.2,1.2c0.1,0.4,0.4,0.7,0.6,0.9c0.3,0.3,0.6,0.5,1,0.6
			c0.4,0.1,0.9,0.2,1.4,0.2c0.3,0,0.7,0,1-0.1c0.3-0.1,0.6-0.2,0.9-0.3c0.3-0.1,0.6-0.3,0.8-0.4c0.3-0.2,0.5-0.3,0.7-0.5
			c-0.4-0.4-0.9-0.8-1.3-1.2c-0.4-0.4-0.8-0.8-1.2-1.2c-0.4-0.4-0.8-0.8-1.1-1.2c-0.4-0.4-0.7-0.8-1-1.2c-0.4,0.3-0.8,0.5-1,0.8
			c-0.3,0.3-0.5,0.5-0.7,0.8c-0.2,0.3-0.3,0.5-0.4,0.8C292.6,13.4,292.6,13.6,292.6,13.9z M294,5.4c0,0.2,0,0.4,0.1,0.7
			c0.1,0.2,0.2,0.5,0.3,0.7c0.1,0.2,0.3,0.5,0.5,0.8c0.2,0.3,0.4,0.6,0.7,1c0.6-0.3,1.1-0.6,1.5-0.9c0.4-0.3,0.7-0.6,1-0.8
			c0.2-0.3,0.4-0.5,0.5-0.8c0.1-0.3,0.2-0.5,0.2-0.8c0-0.2,0-0.5-0.1-0.7s-0.2-0.4-0.4-0.6c-0.2-0.2-0.4-0.3-0.7-0.4
			c-0.3-0.1-0.6-0.1-1-0.1c-0.4,0-0.8,0.1-1.1,0.2c-0.3,0.1-0.5,0.3-0.7,0.4c-0.2,0.2-0.3,0.4-0.4,0.6C294,4.8,294,5.1,294,5.4z"/>
		<path d="M324,3.3c0,0.2,0,0.3,0,0.4c0,0.1,0,0.2-0.1,0.3c0,0.1-0.1,0.1-0.1,0.2c-0.1,0-0.1,0-0.2,0h-4.5V18c0,0.1,0,0.1,0,0.2
			c0,0.1-0.1,0.1-0.2,0.1c-0.1,0-0.2,0.1-0.3,0.1c-0.1,0-0.3,0-0.5,0c-0.2,0-0.4,0-0.5,0c-0.1,0-0.2,0-0.3-0.1
			c-0.1,0-0.1-0.1-0.2-0.1c0,0,0-0.1,0-0.2V4.2h-4.5c-0.1,0-0.1,0-0.2,0c-0.1,0-0.1-0.1-0.1-0.2c0-0.1-0.1-0.2-0.1-0.3
			c0-0.1,0-0.2,0-0.4c0-0.2,0-0.3,0-0.4c0-0.1,0-0.2,0.1-0.3c0-0.1,0.1-0.1,0.1-0.2c0.1,0,0.1,0,0.2,0h11.1c0.1,0,0.1,0,0.2,0
			c0.1,0,0.1,0.1,0.1,0.2c0,0.1,0.1,0.2,0.1,0.3C323.9,3,324,3.2,324,3.3z"/>
		<path d="M330.9,7.7c0,0.2,0,0.3,0,0.5c0,0.1,0,0.2-0.1,0.3c0,0.1-0.1,0.1-0.1,0.2c0,0-0.1,0.1-0.2,0.1c-0.1,0-0.1,0-0.2-0.1
			c-0.1,0-0.2-0.1-0.3-0.1c-0.1,0-0.3-0.1-0.4-0.1c-0.1,0-0.3-0.1-0.5-0.1c-0.2,0-0.4,0-0.6,0.1c-0.2,0.1-0.4,0.2-0.6,0.4
			c-0.2,0.2-0.4,0.4-0.7,0.7c-0.2,0.3-0.5,0.7-0.8,1.1V18c0,0.1,0,0.1,0,0.2c0,0-0.1,0.1-0.2,0.1c-0.1,0-0.2,0.1-0.3,0.1
			c-0.1,0-0.3,0-0.5,0c-0.2,0-0.4,0-0.5,0c-0.1,0-0.2,0-0.3-0.1c-0.1,0-0.1-0.1-0.2-0.1c0,0,0-0.1,0-0.2V7c0-0.1,0-0.1,0-0.2
			c0,0,0.1-0.1,0.1-0.1c0.1,0,0.2-0.1,0.3-0.1c0.1,0,0.3,0,0.5,0c0.2,0,0.3,0,0.4,0c0.1,0,0.2,0,0.3,0.1c0.1,0,0.1,0.1,0.1,0.1
			c0,0,0,0.1,0,0.2v1.6c0.3-0.4,0.6-0.8,0.9-1.1c0.3-0.3,0.5-0.5,0.8-0.7c0.2-0.2,0.5-0.3,0.7-0.3c0.2-0.1,0.5-0.1,0.7-0.1
			c0.1,0,0.2,0,0.4,0c0.1,0,0.3,0,0.4,0.1c0.1,0,0.3,0.1,0.4,0.1c0.1,0,0.2,0.1,0.3,0.1c0.1,0,0.1,0.1,0.1,0.1c0,0,0,0.1,0,0.1
			c0,0.1,0,0.1,0,0.3C330.9,7.3,330.9,7.5,330.9,7.7z"/>
		<path d="M341,18c0,0.1,0,0.2-0.1,0.2c-0.1,0-0.2,0.1-0.3,0.1c-0.1,0-0.3,0-0.5,0c-0.2,0-0.4,0-0.5,0c-0.1,0-0.2-0.1-0.3-0.1
			c-0.1,0-0.1-0.1-0.1-0.2v-1.1c-0.5,0.5-1,0.9-1.6,1.2c-0.6,0.3-1.2,0.4-1.9,0.4c-0.6,0-1.1-0.1-1.6-0.2c-0.5-0.2-0.9-0.4-1.2-0.7
			c-0.3-0.3-0.6-0.6-0.8-1.1c-0.2-0.4-0.3-0.9-0.3-1.4c0-0.6,0.1-1.2,0.4-1.6c0.3-0.5,0.6-0.8,1.1-1.1c0.5-0.3,1.1-0.5,1.7-0.7
			c0.7-0.2,1.5-0.2,2.3-0.2h1.5v-0.9c0-0.4,0-0.8-0.1-1.1c-0.1-0.3-0.2-0.6-0.4-0.8c-0.2-0.2-0.5-0.4-0.8-0.5
			C337.4,8.1,337,8,336.5,8c-0.5,0-0.9,0.1-1.3,0.2s-0.7,0.2-1,0.4c-0.3,0.1-0.6,0.3-0.7,0.4c-0.2,0.1-0.4,0.2-0.4,0.2
			c-0.1,0-0.1,0-0.2,0c0,0-0.1-0.1-0.1-0.1c0-0.1-0.1-0.1-0.1-0.3c0-0.1,0-0.2,0-0.3c0-0.2,0-0.4,0-0.5c0-0.1,0.1-0.2,0.2-0.3
			c0.1-0.1,0.3-0.2,0.6-0.4c0.3-0.1,0.6-0.3,0.9-0.4s0.7-0.2,1.2-0.3c0.4-0.1,0.8-0.1,1.3-0.1c0.8,0,1.5,0.1,2,0.3
			c0.6,0.2,1,0.4,1.4,0.8c0.3,0.3,0.6,0.8,0.7,1.3c0.2,0.5,0.2,1.1,0.2,1.8V18z M339,13h-1.7c-0.6,0-1,0-1.4,0.1s-0.7,0.2-1,0.4
			c-0.3,0.2-0.5,0.4-0.6,0.7c-0.1,0.3-0.2,0.6-0.2,0.9c0,0.6,0.2,1,0.5,1.4c0.4,0.3,0.9,0.5,1.5,0.5c0.5,0,1-0.1,1.5-0.4
			c0.5-0.3,0.9-0.7,1.4-1.2V13z"/>
		<path d="M347,3.2c0,0.5-0.1,0.8-0.3,1c-0.2,0.2-0.5,0.3-1,0.3c-0.5,0-0.8-0.1-1-0.2c-0.2-0.2-0.3-0.5-0.3-1c0-0.5,0.1-0.8,0.3-1
			c0.2-0.2,0.5-0.3,1-0.3c0.5,0,0.8,0.1,1,0.3C346.9,2.4,347,2.7,347,3.2z M346.8,18c0,0.1,0,0.1,0,0.2c0,0-0.1,0.1-0.2,0.1
			c-0.1,0-0.2,0.1-0.3,0.1c-0.1,0-0.3,0-0.5,0c-0.2,0-0.4,0-0.5,0c-0.1,0-0.2,0-0.3-0.1c-0.1,0-0.1-0.1-0.2-0.1c0,0,0-0.1,0-0.2V7
			c0-0.1,0-0.1,0-0.2c0,0,0.1-0.1,0.2-0.1c0.1,0,0.2-0.1,0.3-0.1c0.1,0,0.3,0,0.5,0c0.2,0,0.4,0,0.5,0c0.1,0,0.2,0,0.3,0.1
			c0.1,0,0.1,0.1,0.2,0.1c0,0,0,0.1,0,0.2V18z"/>
		<path d="M360.1,18c0,0.1,0,0.1-0.1,0.2c0,0-0.1,0.1-0.2,0.1c-0.1,0-0.2,0.1-0.3,0.1c-0.1,0-0.3,0-0.5,0c-0.2,0-0.4,0-0.5,0
			c-0.1,0-0.2,0-0.3-0.1c-0.1,0-0.1-0.1-0.2-0.1c0,0-0.1-0.1-0.1-0.2v-6.5c0-0.6,0-1.1-0.1-1.5c-0.1-0.4-0.2-0.7-0.4-1
			c-0.2-0.3-0.4-0.5-0.7-0.6c-0.3-0.1-0.6-0.2-1-0.2c-0.5,0-1,0.2-1.5,0.5s-1,0.9-1.6,1.6V18c0,0.1,0,0.1,0,0.2c0,0-0.1,0.1-0.2,0.1
			c-0.1,0-0.2,0.1-0.3,0.1c-0.1,0-0.3,0-0.5,0c-0.2,0-0.4,0-0.5,0c-0.1,0-0.2,0-0.3-0.1c-0.1,0-0.1-0.1-0.2-0.1c0,0,0-0.1,0-0.2V7
			c0-0.1,0-0.1,0-0.2c0,0,0.1-0.1,0.1-0.1c0.1,0,0.2-0.1,0.3-0.1c0.1,0,0.3,0,0.5,0c0.2,0,0.3,0,0.4,0c0.1,0,0.2,0,0.3,0.1
			c0.1,0,0.1,0.1,0.1,0.1c0,0,0,0.1,0,0.2v1.5c0.6-0.7,1.2-1.2,1.9-1.5c0.6-0.3,1.2-0.5,1.9-0.5c0.7,0,1.4,0.1,1.9,0.4
			c0.5,0.2,0.9,0.6,1.2,1c0.3,0.4,0.5,0.9,0.7,1.5s0.2,1.2,0.2,2V18z"/>
		<path d="M366,3.2c0,0.5-0.1,0.8-0.3,1c-0.2,0.2-0.5,0.3-1,0.3c-0.5,0-0.8-0.1-1-0.2c-0.2-0.2-0.3-0.5-0.3-1c0-0.5,0.1-0.8,0.3-1
			c0.2-0.2,0.5-0.3,1-0.3c0.5,0,0.8,0.1,1,0.3C365.9,2.4,366,2.7,366,3.2z M365.8,18c0,0.1,0,0.1,0,0.2c0,0-0.1,0.1-0.2,0.1
			c-0.1,0-0.2,0.1-0.3,0.1c-0.1,0-0.3,0-0.5,0c-0.2,0-0.4,0-0.5,0c-0.1,0-0.2,0-0.3-0.1c-0.1,0-0.1-0.1-0.2-0.1c0,0,0-0.1,0-0.2V7
			c0-0.1,0-0.1,0-0.2c0,0,0.1-0.1,0.2-0.1c0.1,0,0.2-0.1,0.3-0.1c0.1,0,0.3,0,0.5,0c0.2,0,0.4,0,0.5,0c0.1,0,0.2,0,0.3,0.1
			c0.1,0,0.1,0.1,0.2,0.1c0,0,0,0.1,0,0.2V18z"/>
		<path d="M379.1,18c0,0.1,0,0.1-0.1,0.2c0,0-0.1,0.1-0.2,0.1c-0.1,0-0.2,0.1-0.3,0.1c-0.1,0-0.3,0-0.5,0c-0.2,0-0.4,0-0.5,0
			c-0.1,0-0.2,0-0.3-0.1c-0.1,0-0.1-0.1-0.2-0.1c0,0-0.1-0.1-0.1-0.2v-6.5c0-0.6,0-1.1-0.1-1.5c-0.1-0.4-0.2-0.7-0.4-1
			c-0.2-0.3-0.4-0.5-0.7-0.6c-0.3-0.1-0.6-0.2-1-0.2c-0.5,0-1,0.2-1.5,0.5s-1,0.9-1.6,1.6V18c0,0.1,0,0.1,0,0.2c0,0-0.1,0.1-0.2,0.1
			c-0.1,0-0.2,0.1-0.3,0.1c-0.1,0-0.3,0-0.5,0c-0.2,0-0.4,0-0.5,0c-0.1,0-0.2,0-0.3-0.1c-0.1,0-0.1-0.1-0.2-0.1c0,0,0-0.1,0-0.2V7
			c0-0.1,0-0.1,0-0.2c0,0,0.1-0.1,0.1-0.1c0.1,0,0.2-0.1,0.3-0.1c0.1,0,0.3,0,0.5,0c0.2,0,0.3,0,0.4,0c0.1,0,0.2,0,0.3,0.1
			c0.1,0,0.1,0.1,0.1,0.1c0,0,0,0.1,0,0.2v1.5c0.6-0.7,1.2-1.2,1.9-1.5c0.6-0.3,1.2-0.5,1.9-0.5c0.7,0,1.4,0.1,1.9,0.4
			c0.5,0.2,0.9,0.6,1.2,1c0.3,0.4,0.5,0.9,0.7,1.5s0.2,1.2,0.2,2V18z"/>
		<path d="M392,7.5c0,0.3,0,0.5-0.1,0.6c-0.1,0.1-0.2,0.2-0.3,0.2H390c0.3,0.3,0.5,0.6,0.6,1c0.1,0.4,0.2,0.7,0.2,1.1
			c0,0.6-0.1,1.2-0.3,1.7c-0.2,0.5-0.5,0.9-0.9,1.2c-0.4,0.3-0.8,0.6-1.4,0.8c-0.5,0.2-1.1,0.3-1.7,0.3c-0.4,0-0.9-0.1-1.3-0.2
			c-0.4-0.1-0.7-0.3-0.9-0.4c-0.1,0.1-0.3,0.3-0.4,0.5c-0.1,0.2-0.1,0.4-0.1,0.7c0,0.3,0.1,0.5,0.4,0.7c0.3,0.2,0.6,0.3,1.1,0.3
			l2.9,0.1c0.6,0,1.1,0.1,1.5,0.2c0.5,0.1,0.9,0.3,1.2,0.6c0.3,0.2,0.6,0.6,0.8,0.9c0.2,0.4,0.3,0.8,0.3,1.3c0,0.5-0.1,1-0.3,1.4
			c-0.2,0.5-0.5,0.9-1,1.2c-0.4,0.3-1,0.6-1.7,0.8c-0.7,0.2-1.5,0.3-2.4,0.3c-0.9,0-1.7-0.1-2.3-0.2c-0.6-0.2-1.1-0.4-1.5-0.6
			c-0.4-0.3-0.7-0.6-0.9-0.9c-0.2-0.4-0.3-0.8-0.3-1.2c0-0.3,0-0.5,0.1-0.8c0.1-0.3,0.2-0.5,0.3-0.7c0.1-0.2,0.3-0.4,0.5-0.7
			c0.2-0.2,0.4-0.4,0.7-0.6c-0.4-0.2-0.7-0.5-0.9-0.8c-0.2-0.3-0.3-0.6-0.3-1c0-0.5,0.1-0.9,0.3-1.3c0.2-0.4,0.5-0.7,0.8-1.1
			c-0.3-0.3-0.5-0.6-0.6-1c-0.1-0.4-0.2-0.8-0.2-1.4c0-0.6,0.1-1.2,0.3-1.7c0.2-0.5,0.5-0.9,0.9-1.3c0.4-0.3,0.8-0.6,1.4-0.8
			c0.5-0.2,1.1-0.3,1.7-0.3c0.3,0,0.6,0,0.9,0.1c0.3,0,0.6,0.1,0.8,0.2h3.3c0.1,0,0.2,0.1,0.3,0.2C392,7,392,7.2,392,7.5z
			 M389.9,19.1c0-0.5-0.2-0.8-0.6-1.1c-0.4-0.3-0.9-0.4-1.6-0.4l-2.9-0.1c-0.3,0.2-0.5,0.4-0.6,0.6c-0.2,0.2-0.3,0.4-0.4,0.5
			c-0.1,0.2-0.2,0.3-0.2,0.5c0,0.2-0.1,0.3-0.1,0.5c0,0.5,0.3,0.9,0.8,1.2c0.5,0.3,1.3,0.4,2.3,0.4c0.6,0,1.1-0.1,1.5-0.2
			c0.4-0.1,0.7-0.3,1-0.5c0.2-0.2,0.4-0.4,0.5-0.7C389.8,19.7,389.9,19.4,389.9,19.1z M388.8,10.4c0-0.8-0.2-1.3-0.6-1.8
			c-0.4-0.4-1-0.6-1.8-0.6c-0.4,0-0.7,0.1-1,0.2c-0.3,0.1-0.5,0.3-0.7,0.5c-0.2,0.2-0.3,0.5-0.4,0.8s-0.1,0.6-0.1,0.9
			c0,0.7,0.2,1.3,0.6,1.7c0.4,0.4,1,0.6,1.7,0.6c0.4,0,0.8-0.1,1-0.2c0.3-0.1,0.5-0.3,0.7-0.5c0.2-0.2,0.3-0.5,0.4-0.8
			C388.8,11,388.8,10.7,388.8,10.4z"/>
		<path d="M167.4,49c0.1,0.2,0.1,0.3,0.1,0.4s0,0.2-0.1,0.3s-0.2,0.1-0.3,0.1c-0.2,0-0.4,0-0.6,0s-0.5,0-0.6,0c-0.2,0-0.3,0-0.3-0.1
			c-0.1,0-0.1-0.1-0.2-0.1c0,0-0.1-0.1-0.1-0.2l-1.4-3.9h-6.6l-1.3,3.8c0,0.1-0.1,0.1-0.1,0.2c0,0.1-0.1,0.1-0.2,0.1
			c-0.1,0-0.2,0.1-0.3,0.1c-0.1,0-0.3,0-0.6,0c-0.2,0-0.4,0-0.6,0c-0.2,0-0.3-0.1-0.3-0.1s-0.1-0.1-0.1-0.3c0-0.1,0-0.3,0.1-0.4
			l5.3-14.8c0-0.1,0.1-0.2,0.1-0.2s0.1-0.1,0.2-0.1c0.1,0,0.2-0.1,0.4-0.1c0.2,0,0.4,0,0.6,0c0.3,0,0.5,0,0.7,0c0.2,0,0.3,0,0.4,0.1
			c0.1,0,0.2,0.1,0.2,0.1c0.1,0.1,0.1,0.1,0.1,0.2L167.4,49z M160.6,36L160.6,36l-2.8,7.9h5.5L160.6,36z"/>
		<path d="M179.3,49.5c0,0.1,0,0.1,0,0.2c0,0-0.1,0.1-0.1,0.1c-0.1,0-0.2,0.1-0.3,0.1c-0.1,0-0.3,0-0.4,0c-0.2,0-0.3,0-0.4,0
			c-0.1,0-0.2,0-0.3-0.1c-0.1,0-0.1-0.1-0.2-0.1c0,0,0-0.1,0-0.2V48c-0.6,0.6-1.2,1.1-1.8,1.5c-0.6,0.4-1.3,0.5-2.1,0.5
			c-0.8,0-1.5-0.2-2.1-0.5c-0.6-0.3-1-0.7-1.4-1.3c-0.4-0.5-0.6-1.2-0.8-1.9c-0.2-0.7-0.2-1.5-0.2-2.3c0-0.9,0.1-1.8,0.3-2.6
			c0.2-0.8,0.5-1.4,0.9-2c0.4-0.5,0.9-1,1.5-1.2c0.6-0.3,1.3-0.4,2.1-0.4c0.6,0,1.2,0.1,1.8,0.4c0.5,0.3,1.1,0.7,1.6,1.2v-6.4
			c0-0.1,0-0.1,0-0.2c0-0.1,0.1-0.1,0.2-0.1c0.1,0,0.2-0.1,0.3-0.1c0.1,0,0.3,0,0.5,0c0.2,0,0.4,0,0.5,0c0.1,0,0.2,0,0.3,0.1
			c0.1,0,0.1,0.1,0.2,0.1c0,0.1,0.1,0.1,0.1,0.2V49.5z M177.3,41.7c-0.5-0.7-1.1-1.2-1.6-1.6c-0.5-0.4-1-0.5-1.6-0.5
			c-0.5,0-1,0.1-1.3,0.4c-0.4,0.2-0.7,0.6-0.9,1c-0.2,0.4-0.4,0.9-0.5,1.4c-0.1,0.5-0.2,1-0.2,1.5c0,0.6,0,1.1,0.1,1.6
			c0.1,0.5,0.2,1,0.4,1.4c0.2,0.4,0.5,0.7,0.8,1c0.4,0.2,0.8,0.4,1.3,0.4c0.3,0,0.5,0,0.8-0.1s0.5-0.2,0.8-0.4
			c0.3-0.2,0.5-0.4,0.8-0.7c0.3-0.3,0.6-0.6,0.9-1V41.7z"/>
		<path d="M199.5,49.5c0,0.1,0,0.1,0,0.2c0,0-0.1,0.1-0.2,0.1c-0.1,0-0.2,0.1-0.3,0.1c-0.1,0-0.3,0-0.5,0c-0.2,0-0.4,0-0.5,0
			s-0.2,0-0.3-0.1c-0.1,0-0.1-0.1-0.2-0.1c0,0,0-0.1,0-0.2v-6.7c0-0.5,0-0.9-0.1-1.3c-0.1-0.4-0.2-0.7-0.4-1
			c-0.2-0.3-0.4-0.5-0.7-0.6c-0.3-0.1-0.6-0.2-1-0.2c-0.5,0-0.9,0.2-1.4,0.5c-0.5,0.4-1,0.9-1.6,1.6v7.7c0,0.1,0,0.1,0,0.2
			c0,0-0.1,0.1-0.2,0.1c-0.1,0-0.2,0.1-0.3,0.1c-0.1,0-0.3,0-0.5,0c-0.2,0-0.3,0-0.5,0c-0.1,0-0.2,0-0.3-0.1c-0.1,0-0.1-0.1-0.2-0.1
			c0,0,0-0.1,0-0.2v-6.7c0-0.5,0-0.9-0.1-1.3c-0.1-0.4-0.2-0.7-0.4-1c-0.2-0.3-0.4-0.5-0.7-0.6c-0.3-0.1-0.6-0.2-1-0.2
			c-0.5,0-0.9,0.2-1.4,0.5c-0.5,0.4-1,0.9-1.5,1.6v7.7c0,0.1,0,0.1,0,0.2c0,0-0.1,0.1-0.2,0.1c-0.1,0-0.2,0.1-0.3,0.1
			c-0.1,0-0.3,0-0.5,0c-0.2,0-0.4,0-0.5,0c-0.1,0-0.2,0-0.3-0.1c-0.1,0-0.1-0.1-0.2-0.1c0,0,0-0.1,0-0.2V38.4c0-0.1,0-0.1,0-0.2
			c0,0,0.1-0.1,0.1-0.1c0.1,0,0.2-0.1,0.3-0.1c0.1,0,0.3,0,0.5,0c0.2,0,0.3,0,0.4,0c0.1,0,0.2,0,0.3,0.1c0.1,0,0.1,0.1,0.1,0.1
			c0,0,0,0.1,0,0.2v1.5c0.6-0.7,1.2-1.2,1.8-1.5c0.6-0.3,1.2-0.5,1.8-0.5c0.5,0,0.9,0.1,1.2,0.2c0.4,0.1,0.7,0.3,1,0.4
			c0.3,0.2,0.5,0.4,0.7,0.7c0.2,0.3,0.4,0.6,0.5,0.9c0.4-0.4,0.7-0.7,1.1-1c0.3-0.3,0.7-0.5,1-0.7c0.3-0.2,0.6-0.3,0.9-0.4
			c0.3-0.1,0.6-0.1,0.9-0.1c0.7,0,1.3,0.1,1.8,0.4c0.5,0.2,0.9,0.6,1.2,1s0.5,0.9,0.6,1.5c0.1,0.6,0.2,1.2,0.2,1.8V49.5z"/>
		<path d="M205.4,34.7c0,0.5-0.1,0.8-0.3,1c-0.2,0.2-0.5,0.3-1,0.3c-0.5,0-0.8-0.1-1-0.2c-0.2-0.2-0.3-0.5-0.3-1
			c0-0.5,0.1-0.8,0.3-1c0.2-0.2,0.5-0.3,1-0.3c0.5,0,0.8,0.1,1,0.3C205.3,33.9,205.4,34.2,205.4,34.7z M205.2,49.5
			c0,0.1,0,0.1,0,0.2c0,0-0.1,0.1-0.2,0.1c-0.1,0-0.2,0.1-0.3,0.1s-0.3,0-0.5,0c-0.2,0-0.4,0-0.5,0c-0.1,0-0.2,0-0.3-0.1
			c-0.1,0-0.1-0.1-0.2-0.1c0,0,0-0.1,0-0.2V38.4c0-0.1,0-0.1,0-0.2c0,0,0.1-0.1,0.2-0.1c0.1,0,0.2-0.1,0.3-0.1c0.1,0,0.3,0,0.5,0
			c0.2,0,0.4,0,0.5,0c0.1,0,0.2,0,0.3,0.1c0.1,0,0.1,0.1,0.2,0.1c0,0,0,0.1,0,0.2V49.5z"/>
		<path d="M218.5,49.5c0,0.1,0,0.1-0.1,0.2c0,0-0.1,0.1-0.2,0.1c-0.1,0-0.2,0.1-0.3,0.1s-0.3,0-0.5,0c-0.2,0-0.4,0-0.5,0
			s-0.2,0-0.3-0.1c-0.1,0-0.1-0.1-0.2-0.1c0,0-0.1-0.1-0.1-0.2V43c0-0.6,0-1.1-0.1-1.5c-0.1-0.4-0.2-0.7-0.4-1
			c-0.2-0.3-0.4-0.5-0.7-0.6c-0.3-0.1-0.6-0.2-1-0.2c-0.5,0-1,0.2-1.5,0.5c-0.5,0.4-1,0.9-1.6,1.6v7.7c0,0.1,0,0.1,0,0.2
			c0,0-0.1,0.1-0.2,0.1c-0.1,0-0.2,0.1-0.3,0.1s-0.3,0-0.5,0c-0.2,0-0.4,0-0.5,0s-0.2,0-0.3-0.1c-0.1,0-0.1-0.1-0.2-0.1
			c0,0,0-0.1,0-0.2V38.4c0-0.1,0-0.1,0-0.2c0,0,0.1-0.1,0.1-0.1c0.1,0,0.2-0.1,0.3-0.1c0.1,0,0.3,0,0.5,0c0.2,0,0.3,0,0.4,0
			c0.1,0,0.2,0,0.3,0.1c0.1,0,0.1,0.1,0.1,0.1c0,0,0,0.1,0,0.2v1.5c0.6-0.7,1.2-1.2,1.9-1.5c0.6-0.3,1.2-0.5,1.9-0.5
			c0.7,0,1.4,0.1,1.9,0.4c0.5,0.2,0.9,0.6,1.2,1s0.5,0.9,0.7,1.5c0.1,0.6,0.2,1.2,0.2,2V49.5z"/>
		<path d="M224.4,34.7c0,0.5-0.1,0.8-0.3,1c-0.2,0.2-0.5,0.3-1,0.3c-0.5,0-0.8-0.1-1-0.2c-0.2-0.2-0.3-0.5-0.3-1
			c0-0.5,0.1-0.8,0.3-1c0.2-0.2,0.5-0.3,1-0.3c0.5,0,0.8,0.1,1,0.3C224.3,33.9,224.4,34.2,224.4,34.7z M224.2,49.5
			c0,0.1,0,0.1,0,0.2c0,0-0.1,0.1-0.2,0.1c-0.1,0-0.2,0.1-0.3,0.1c-0.1,0-0.3,0-0.5,0c-0.2,0-0.4,0-0.5,0c-0.1,0-0.2,0-0.3-0.1
			c-0.1,0-0.1-0.1-0.2-0.1c0,0,0-0.1,0-0.2V38.4c0-0.1,0-0.1,0-0.2c0,0,0.1-0.1,0.2-0.1c0.1,0,0.2-0.1,0.3-0.1c0.1,0,0.3,0,0.5,0
			c0.2,0,0.4,0,0.5,0c0.1,0,0.2,0,0.3,0.1c0.1,0,0.1,0.1,0.2,0.1c0,0,0,0.1,0,0.2V49.5z"/>
		<path d="M234.9,46.4c0,0.6-0.1,1.1-0.3,1.5c-0.2,0.4-0.5,0.8-0.9,1.1c-0.4,0.3-0.8,0.5-1.4,0.7s-1.1,0.2-1.8,0.2
			c-0.4,0-0.8,0-1.1-0.1c-0.4-0.1-0.7-0.1-1-0.2c-0.3-0.1-0.5-0.2-0.7-0.3c-0.2-0.1-0.3-0.2-0.4-0.3c-0.1-0.1-0.2-0.2-0.2-0.3
			c0-0.1-0.1-0.3-0.1-0.6c0-0.2,0-0.3,0-0.4c0-0.1,0-0.2,0.1-0.3c0-0.1,0.1-0.1,0.1-0.1c0,0,0.1,0,0.2,0c0.1,0,0.2,0.1,0.4,0.2
			c0.2,0.1,0.4,0.2,0.7,0.4c0.3,0.1,0.6,0.3,0.9,0.4c0.4,0.1,0.8,0.2,1.2,0.2c0.3,0,0.7,0,0.9-0.1c0.3-0.1,0.5-0.2,0.7-0.3
			c0.2-0.1,0.4-0.3,0.5-0.5c0.1-0.2,0.2-0.5,0.2-0.8c0-0.3-0.1-0.6-0.2-0.8c-0.2-0.2-0.4-0.4-0.6-0.6c-0.3-0.2-0.6-0.3-0.9-0.4
			c-0.3-0.1-0.7-0.3-1-0.4c-0.3-0.1-0.7-0.3-1-0.5c-0.3-0.2-0.6-0.4-0.9-0.6c-0.3-0.3-0.5-0.6-0.6-0.9c-0.2-0.4-0.2-0.8-0.2-1.3
			c0-0.4,0.1-0.8,0.3-1.2c0.2-0.4,0.4-0.7,0.8-1c0.3-0.3,0.8-0.5,1.3-0.7c0.5-0.2,1.1-0.3,1.8-0.3c0.3,0,0.6,0,0.9,0.1
			c0.3,0.1,0.6,0.1,0.8,0.2c0.2,0.1,0.4,0.2,0.6,0.2c0.2,0.1,0.3,0.2,0.4,0.2c0.1,0.1,0.1,0.1,0.2,0.2c0,0,0.1,0.1,0.1,0.2
			c0,0.1,0,0.1,0,0.2c0,0.1,0,0.2,0,0.3c0,0.1,0,0.3,0,0.4c0,0.1,0,0.2-0.1,0.3c0,0.1-0.1,0.1-0.1,0.1c0,0-0.1,0-0.1,0
			c-0.1,0-0.2,0-0.3-0.1c-0.1-0.1-0.3-0.2-0.5-0.3c-0.2-0.1-0.5-0.2-0.8-0.3c-0.3-0.1-0.6-0.1-1-0.1c-0.3,0-0.6,0-0.9,0.1
			c-0.3,0.1-0.5,0.2-0.6,0.3c-0.2,0.1-0.3,0.3-0.4,0.5c-0.1,0.2-0.1,0.4-0.1,0.6c0,0.3,0.1,0.6,0.2,0.8c0.2,0.2,0.4,0.4,0.6,0.6
			c0.3,0.2,0.6,0.3,0.9,0.4c0.3,0.1,0.7,0.3,1,0.4c0.4,0.1,0.7,0.3,1,0.5s0.6,0.4,0.9,0.6c0.3,0.2,0.5,0.5,0.6,0.9
			C234.8,45.6,234.9,46,234.9,46.4z"/>
		<path d="M243.2,48.6c0,0.2,0,0.4-0.1,0.6c0,0.1-0.1,0.2-0.1,0.3c-0.1,0.1-0.2,0.1-0.3,0.2s-0.3,0.1-0.4,0.1
			c-0.2,0-0.3,0.1-0.5,0.1c-0.2,0-0.4,0-0.6,0c-0.6,0-1.1-0.1-1.5-0.2c-0.4-0.2-0.7-0.4-1-0.7c-0.3-0.3-0.5-0.7-0.6-1.2
			c-0.1-0.5-0.2-1-0.2-1.7v-6.5h-1.6c-0.1,0-0.2-0.1-0.3-0.2c-0.1-0.1-0.1-0.3-0.1-0.6c0-0.2,0-0.3,0-0.4c0-0.1,0-0.2,0.1-0.3
			c0-0.1,0.1-0.1,0.1-0.1c0.1,0,0.1,0,0.2,0h1.5v-2.6c0-0.1,0-0.1,0-0.2c0,0,0.1-0.1,0.2-0.1c0.1,0,0.2-0.1,0.3-0.1
			c0.1,0,0.3,0,0.5,0c0.2,0,0.4,0,0.5,0c0.1,0,0.2,0,0.3,0.1c0.1,0,0.1,0.1,0.2,0.1c0,0.1,0,0.1,0,0.2v2.6h2.8c0.1,0,0.1,0,0.2,0
			c0,0,0.1,0.1,0.1,0.1c0,0.1,0.1,0.2,0.1,0.3c0,0.1,0,0.2,0,0.4c0,0.3,0,0.5-0.1,0.6c-0.1,0.1-0.2,0.2-0.3,0.2H240v6.2
			c0,0.8,0.1,1.3,0.3,1.7c0.2,0.4,0.6,0.6,1.2,0.6c0.2,0,0.4,0,0.5-0.1c0.1,0,0.3-0.1,0.4-0.1c0.1,0,0.2-0.1,0.3-0.1
			c0.1,0,0.2-0.1,0.2-0.1c0,0,0.1,0,0.1,0c0,0,0.1,0.1,0.1,0.1c0,0.1,0,0.1,0.1,0.2C243.2,48.4,243.2,48.5,243.2,48.6z"/>
		<path d="M252.4,39.1c0,0.2,0,0.3,0,0.5c0,0.1,0,0.2-0.1,0.3c0,0.1-0.1,0.1-0.1,0.2c0,0-0.1,0.1-0.2,0.1c-0.1,0-0.1,0-0.2-0.1
			s-0.2-0.1-0.3-0.1c-0.1,0-0.2-0.1-0.4-0.1c-0.1,0-0.3-0.1-0.5-0.1c-0.2,0-0.4,0-0.6,0.1c-0.2,0.1-0.4,0.2-0.6,0.4
			c-0.2,0.2-0.4,0.4-0.7,0.7c-0.2,0.3-0.5,0.7-0.8,1.1v7.3c0,0.1,0,0.1,0,0.2c0,0-0.1,0.1-0.2,0.1c-0.1,0-0.2,0.1-0.3,0.1
			c-0.1,0-0.3,0-0.5,0c-0.2,0-0.4,0-0.5,0s-0.2,0-0.3-0.1c-0.1,0-0.1-0.1-0.2-0.1c0,0,0-0.1,0-0.2V38.4c0-0.1,0-0.1,0-0.2
			c0,0,0.1-0.1,0.1-0.1c0.1,0,0.2-0.1,0.3-0.1c0.1,0,0.3,0,0.5,0c0.2,0,0.3,0,0.4,0c0.1,0,0.2,0,0.3,0.1c0.1,0,0.1,0.1,0.1,0.1
			c0,0,0,0.1,0,0.2V40c0.3-0.4,0.6-0.8,0.9-1.1c0.3-0.3,0.5-0.5,0.8-0.7c0.2-0.2,0.5-0.3,0.7-0.3c0.2-0.1,0.5-0.1,0.7-0.1
			c0.1,0,0.2,0,0.4,0c0.1,0,0.3,0,0.4,0.1c0.1,0,0.3,0.1,0.4,0.1c0.1,0,0.2,0.1,0.3,0.1c0.1,0,0.1,0.1,0.1,0.1c0,0,0,0.1,0,0.1
			s0,0.1,0,0.3C252.4,38.8,252.4,38.9,252.4,39.1z"/>
		<path d="M262.5,49.5c0,0.1,0,0.2-0.1,0.2c-0.1,0-0.2,0.1-0.3,0.1c-0.1,0-0.3,0-0.5,0c-0.2,0-0.4,0-0.5,0c-0.1,0-0.2-0.1-0.3-0.1
			c-0.1,0-0.1-0.1-0.1-0.2v-1.1c-0.5,0.5-1,0.9-1.6,1.2c-0.6,0.3-1.2,0.4-1.9,0.4c-0.6,0-1.1-0.1-1.6-0.2c-0.5-0.2-0.9-0.4-1.2-0.7
			c-0.3-0.3-0.6-0.6-0.8-1.1c-0.2-0.4-0.3-0.9-0.3-1.4c0-0.6,0.1-1.2,0.4-1.6c0.3-0.5,0.6-0.8,1.1-1.1c0.5-0.3,1.1-0.5,1.7-0.7
			c0.7-0.2,1.5-0.2,2.3-0.2h1.5v-0.9c0-0.4,0-0.8-0.1-1.1c-0.1-0.3-0.2-0.6-0.4-0.8c-0.2-0.2-0.5-0.4-0.8-0.5
			c-0.3-0.1-0.7-0.2-1.2-0.2c-0.5,0-0.9,0.1-1.3,0.2c-0.4,0.1-0.7,0.2-1,0.4c-0.3,0.1-0.6,0.3-0.7,0.4c-0.2,0.1-0.4,0.2-0.4,0.2
			c-0.1,0-0.1,0-0.2,0c0,0-0.1-0.1-0.1-0.1c0-0.1-0.1-0.1-0.1-0.3c0-0.1,0-0.2,0-0.3c0-0.2,0-0.4,0-0.5c0-0.1,0.1-0.2,0.2-0.3
			c0.1-0.1,0.3-0.2,0.6-0.4c0.3-0.1,0.6-0.3,0.9-0.4c0.4-0.1,0.7-0.2,1.2-0.3c0.4-0.1,0.8-0.1,1.3-0.1c0.8,0,1.5,0.1,2,0.3
			c0.6,0.2,1,0.4,1.4,0.8c0.3,0.3,0.6,0.8,0.7,1.3c0.2,0.5,0.2,1.1,0.2,1.8V49.5z M260.5,44.4h-1.7c-0.6,0-1,0-1.4,0.1
			c-0.4,0.1-0.7,0.2-1,0.4c-0.3,0.2-0.5,0.4-0.6,0.7c-0.1,0.3-0.2,0.6-0.2,0.9c0,0.6,0.2,1,0.5,1.4c0.4,0.3,0.9,0.5,1.5,0.5
			c0.5,0,1-0.1,1.5-0.4c0.5-0.3,0.9-0.7,1.4-1.2V44.4z"/>
		<path d="M275.6,38.1c0.2,0,0.4,0.1,0.5,0.2s0.1,0.3,0.1,0.5v10.7c0,0.1,0,0.1-0.1,0.2c0,0-0.1,0.1-0.2,0.1c-0.1,0-0.2,0.1-0.3,0.1
			c-0.1,0-0.3,0-0.5,0c-0.2,0-0.4,0-0.5,0s-0.2,0-0.3-0.1c-0.1,0-0.1-0.1-0.2-0.1c0,0,0-0.1,0-0.2v-9.7h-5.7v6.2
			c0,0.8,0.1,1.3,0.3,1.7c0.2,0.4,0.6,0.6,1.2,0.6c0.2,0,0.4,0,0.5-0.1c0.1,0,0.3-0.1,0.4-0.1c0.1,0,0.2-0.1,0.3-0.1
			c0.1,0,0.2-0.1,0.2-0.1c0,0,0.1,0,0.1,0c0,0,0.1,0.1,0.1,0.1c0,0.1,0,0.1,0.1,0.2c0,0.1,0,0.2,0,0.4c0,0.2,0,0.4-0.1,0.6
			c0,0.1-0.1,0.2-0.1,0.3c-0.1,0.1-0.2,0.1-0.3,0.2s-0.3,0.1-0.4,0.1c-0.2,0-0.3,0.1-0.5,0.1c-0.2,0-0.4,0-0.6,0
			c-0.6,0-1.1-0.1-1.5-0.2c-0.4-0.2-0.7-0.4-1-0.7c-0.3-0.3-0.5-0.7-0.6-1.2c-0.1-0.5-0.2-1-0.2-1.7v-6.5h-1.6
			c-0.1,0-0.2-0.1-0.3-0.2c-0.1-0.1-0.1-0.3-0.1-0.6c0-0.2,0-0.3,0-0.4c0-0.1,0-0.2,0.1-0.3c0-0.1,0.1-0.1,0.1-0.1
			c0.1,0,0.1,0,0.2,0h1.5v-2.6c0-0.1,0-0.1,0-0.2c0,0,0.1-0.1,0.2-0.1c0.1,0,0.2-0.1,0.3-0.1c0.1,0,0.3,0,0.5,0c0.2,0,0.4,0,0.5,0
			s0.2,0,0.3,0.1c0.1,0,0.1,0.1,0.2,0.1c0,0.1,0,0.1,0,0.2v2.6H275.6z M276.5,34.7c0,0.5-0.1,0.8-0.3,1c-0.2,0.2-0.5,0.3-1,0.3
			c-0.5,0-0.8-0.1-1-0.2c-0.2-0.2-0.3-0.5-0.3-1c0-0.5,0.1-0.8,0.3-1c0.2-0.2,0.5-0.3,1-0.3c0.5,0,0.8,0.1,1,0.3
			C276.4,33.9,276.5,34.2,276.5,34.7z"/>
		<path d="M290.3,43.8c0,0.9-0.1,1.7-0.4,2.5c-0.2,0.8-0.6,1.4-1.1,2c-0.5,0.5-1.1,1-1.8,1.3c-0.7,0.3-1.5,0.5-2.5,0.5
			c-0.9,0-1.7-0.1-2.4-0.4c-0.7-0.3-1.2-0.7-1.7-1.2c-0.4-0.5-0.8-1.1-1-1.9c-0.2-0.7-0.3-1.6-0.3-2.5c0-0.9,0.1-1.7,0.4-2.5
			c0.2-0.8,0.6-1.4,1.1-2c0.5-0.5,1.1-1,1.8-1.3c0.7-0.3,1.5-0.5,2.5-0.5c0.9,0,1.7,0.1,2.4,0.4c0.7,0.3,1.2,0.7,1.7,1.2
			c0.4,0.5,0.8,1.1,1,1.9C290.2,42.1,290.3,42.9,290.3,43.8z M288.2,43.9c0-0.6-0.1-1.2-0.2-1.7c-0.1-0.5-0.3-1-0.6-1.4
			c-0.3-0.4-0.6-0.7-1-1c-0.4-0.2-1-0.3-1.6-0.3c-0.6,0-1.1,0.1-1.6,0.3c-0.4,0.2-0.8,0.5-1.1,0.9c-0.3,0.4-0.5,0.8-0.6,1.4
			c-0.1,0.5-0.2,1.1-0.2,1.7c0,0.6,0.1,1.2,0.2,1.7c0.1,0.5,0.3,1,0.6,1.4c0.3,0.4,0.6,0.7,1,0.9c0.4,0.2,1,0.3,1.6,0.3
			c0.6,0,1.1-0.1,1.6-0.3c0.4-0.2,0.8-0.5,1.1-0.9c0.3-0.4,0.5-0.8,0.6-1.4C288.1,45.2,288.2,44.6,288.2,43.9z"/>
		<path d="M302.8,49.5c0,0.1,0,0.1-0.1,0.2c0,0-0.1,0.1-0.2,0.1c-0.1,0-0.2,0.1-0.3,0.1s-0.3,0-0.5,0c-0.2,0-0.4,0-0.5,0
			s-0.2,0-0.3-0.1c-0.1,0-0.1-0.1-0.2-0.1c0,0-0.1-0.1-0.1-0.2V43c0-0.6,0-1.1-0.1-1.5c-0.1-0.4-0.2-0.7-0.4-1
			c-0.2-0.3-0.4-0.5-0.7-0.6c-0.3-0.1-0.6-0.2-1-0.2c-0.5,0-1,0.2-1.5,0.5c-0.5,0.4-1,0.9-1.6,1.6v7.7c0,0.1,0,0.1,0,0.2
			c0,0-0.1,0.1-0.2,0.1c-0.1,0-0.2,0.1-0.3,0.1s-0.3,0-0.5,0c-0.2,0-0.4,0-0.5,0s-0.2,0-0.3-0.1c-0.1,0-0.1-0.1-0.2-0.1
			c0,0,0-0.1,0-0.2V38.4c0-0.1,0-0.1,0-0.2c0,0,0.1-0.1,0.1-0.1c0.1,0,0.2-0.1,0.3-0.1c0.1,0,0.3,0,0.5,0c0.2,0,0.3,0,0.4,0
			c0.1,0,0.2,0,0.3,0.1c0.1,0,0.1,0.1,0.1,0.1c0,0,0,0.1,0,0.2v1.5c0.6-0.7,1.2-1.2,1.9-1.5c0.6-0.3,1.2-0.5,1.9-0.5
			c0.7,0,1.4,0.1,1.9,0.4c0.5,0.2,0.9,0.6,1.2,1c0.3,0.4,0.5,0.9,0.7,1.5c0.1,0.6,0.2,1.2,0.2,2V49.5z"/>
	</g>
</g>
</svg>
